<svg width="256" height="256" xmlns="http://www.w3.org/2000/svg"><path d="m109.85 255.985 16.583-19.202c6.559-.1 13.65-.7 19.462-3.3 20.741-9.301 20.475-30.954 20.421-31.904-.053-2.5-.426-2.2-15.41-18.702h42.177c-.107 25.053-3.893 34.254-5.439 37.854-5.012 11.852-23.407 31.404-50.76 34.704-4.639.55-17.489.6-27.033.55Zm106.853-83.859c20.582 0 31.192-6.8 39.297-15.451l-93.576-.15-9.278 15.651 63.557-.05ZM193.456 60.164v84.16h-39.19l-17.435 27.752h-3.466c-27.886 0-30.979-28.253-31.086-29.453-.64-6.6-11.357-5.8-10.717.9.747 7.901 4.692 20.002 14.077 28.553H57.118c-13.597 0-59.079-13.401-57.052-57.006V8.41C.066.408 5.238.108 8.064.008h43.722c.106 0 .16.05.266.05 2.293-.2 26.713-1.05 26.713 21.852 0 6.65 10.771 6.701 10.771 0 0-9.1-2.933-16.401-8.425-21.852h44.896c57.958-.2 67.449 39.704 67.449 60.106Zm-70.649 28.003 34.125 14.652c7.092-22.753-22.5-35.854-34.125-14.652Z" fill="#4181D4" fill-rule="nonzero"/></svg>